<mxfile host="app.diagrams.net" modified="2024-02-15T06:31:22.435Z" agent="Mozilla/5.0 (Windows NT 10.0; Win64; x64) AppleWebKit/537.36 (KHTML, like Gecko) Chrome/120.0.0.0 Safari/537.36 OPR/106.0.0.0 (Edition std-1)" etag="sX5PltufUMgLarjP5krC" version="23.1.4" type="device">
  <diagram name="Page-1" id="maiU_0BO1mgrhC95SMk1">
    <mxGraphModel dx="1393" dy="797" grid="1" gridSize="10" guides="1" tooltips="1" connect="1" arrows="1" fold="1" page="1" pageScale="1" pageWidth="850" pageHeight="1100" math="0" shadow="0">
      <root>
        <mxCell id="0" />
        <mxCell id="1" parent="0" />
        <mxCell id="dENyI5rR7_Z5XR2oltbD-1" value="" style="rounded=0;whiteSpace=wrap;html=1;" vertex="1" parent="1">
          <mxGeometry x="270" y="120" width="310" height="590" as="geometry" />
        </mxCell>
        <mxCell id="dENyI5rR7_Z5XR2oltbD-2" value="" style="rounded=0;whiteSpace=wrap;html=1;" vertex="1" parent="1">
          <mxGeometry x="1120" y="120" width="310" height="590" as="geometry" />
        </mxCell>
        <mxCell id="dENyI5rR7_Z5XR2oltbD-4" value="Home Page" style="text;html=1;align=center;verticalAlign=middle;whiteSpace=wrap;rounded=0;" vertex="1" parent="1">
          <mxGeometry x="383" y="60" width="85" height="30" as="geometry" />
        </mxCell>
        <mxCell id="dENyI5rR7_Z5XR2oltbD-6" value="Menu Page" style="text;html=1;align=center;verticalAlign=middle;whiteSpace=wrap;rounded=0;" vertex="1" parent="1">
          <mxGeometry x="1230" y="60" width="90" height="30" as="geometry" />
        </mxCell>
        <mxCell id="dENyI5rR7_Z5XR2oltbD-7" value="Title" style="text;html=1;align=center;verticalAlign=middle;whiteSpace=wrap;rounded=0;" vertex="1" parent="1">
          <mxGeometry x="383" y="140" width="84.5" height="30" as="geometry" />
        </mxCell>
        <mxCell id="dENyI5rR7_Z5XR2oltbD-8" value="Title" style="text;html=1;align=center;verticalAlign=middle;whiteSpace=wrap;rounded=0;" vertex="1" parent="1">
          <mxGeometry x="1233" y="140" width="84.5" height="30" as="geometry" />
        </mxCell>
        <mxCell id="dENyI5rR7_Z5XR2oltbD-9" value="Image" style="rounded=0;whiteSpace=wrap;html=1;" vertex="1" parent="1">
          <mxGeometry x="320" y="190" width="210" height="200" as="geometry" />
        </mxCell>
        <mxCell id="dENyI5rR7_Z5XR2oltbD-11" value="Phone Number" style="text;html=1;align=center;verticalAlign=middle;whiteSpace=wrap;rounded=0;" vertex="1" parent="1">
          <mxGeometry x="375" y="420" width="100" height="30" as="geometry" />
        </mxCell>
        <mxCell id="dENyI5rR7_Z5XR2oltbD-12" value="Address" style="text;html=1;align=center;verticalAlign=middle;whiteSpace=wrap;rounded=0;" vertex="1" parent="1">
          <mxGeometry x="395" y="460" width="60" height="30" as="geometry" />
        </mxCell>
        <mxCell id="dENyI5rR7_Z5XR2oltbD-13" value="Website" style="text;html=1;align=center;verticalAlign=middle;whiteSpace=wrap;rounded=0;" vertex="1" parent="1">
          <mxGeometry x="395" y="500" width="60" height="30" as="geometry" />
        </mxCell>
        <mxCell id="dENyI5rR7_Z5XR2oltbD-14" value="Menu Button" style="rounded=0;whiteSpace=wrap;html=1;" vertex="1" parent="1">
          <mxGeometry x="365" y="640" width="120" height="30" as="geometry" />
        </mxCell>
        <mxCell id="dENyI5rR7_Z5XR2oltbD-16" value="Home Button" style="rounded=0;whiteSpace=wrap;html=1;" vertex="1" parent="1">
          <mxGeometry x="1213" y="640" width="125" height="30" as="geometry" />
        </mxCell>
        <mxCell id="dENyI5rR7_Z5XR2oltbD-17" value="Menu List" style="rounded=0;whiteSpace=wrap;html=1;" vertex="1" parent="1">
          <mxGeometry x="1160" y="180" width="230" height="440" as="geometry" />
        </mxCell>
      </root>
    </mxGraphModel>
  </diagram>
</mxfile>
